<?xml version="1.0" encoding="UTF-8" standalone="no"?>
<svg
   version="1.0"
   width="632.000000pt"
   height="655.000000pt"
   viewBox="0 0 632.000000 655.000000"
   preserveAspectRatio="xMidYMid meet"
   id="svg5"
   sodipodi:docname="_3-d-icon0.svg"
   inkscape:version="1.4 (86a8ad7, 2024-10-11)"
   xmlns:inkscape="http://www.inkscape.org/namespaces/inkscape"
   xmlns:sodipodi="http://sodipodi.sourceforge.net/DTD/sodipodi-0.dtd"
   xmlns="http://www.w3.org/2000/svg"
   xmlns:svg="http://www.w3.org/2000/svg">
  <defs
     id="defs5" />
  <sodipodi:namedview
     id="namedview5"
     pagecolor="#ffffff"
     bordercolor="#111111"
     borderopacity="1"
     inkscape:showpageshadow="0"
     inkscape:pageopacity="0"
     inkscape:pagecheckerboard="1"
     inkscape:deskcolor="#d1d1d1"
     inkscape:document-units="pt"
     inkscape:zoom="3.212977"
     inkscape:cx="686.1238"
     inkscape:cy="218.64458"
     inkscape:window-width="2736"
     inkscape:window-height="1714"
     inkscape:window-x="-12"
     inkscape:window-y="-12"
     inkscape:window-maximized="1"
     inkscape:current-layer="svg5" />
  <metadata
     id="metadata1">
Created by potrace 1.16, written by Peter Selinger 2001-2019
</metadata>
  <g
     transform="translate(0.000000,655.000000) scale(0.100000,-0.100000)"
     fill="#000000"
     stroke="none"
     id="g5"
     style="fill:#ffffff;fill-opacity:1;stroke:#ffffff;stroke-opacity:1;stroke-width:150;stroke-dasharray:none;stroke-linejoin:miter">
    <path
       d="M445 5855 l-25 -24 0 -569 c0 -551 1 -569 20 -589 28 -31 55 -36 90 -18 16 8 31 17 32 18 2 1 5 238 8 527 l5 525 523 5 523 5 19 25 c23 29 24 43 8 73 -25 47 -11 46 -611 47 l-568 0 -24 -25z"
       id="path1"
       style="fill:#ffffff;fill-opacity:1;stroke:#ffffff;stroke-opacity:1;stroke-width:150;stroke-dasharray:none;stroke-linejoin:miter" />
    <path
       d="M4569 5867 c-19 -14 -39 -50 -39 -69 0 -7 9 -24 20 -38 l19 -25 523 -5 523 -5 5 -523 5 -523 25 -19 c29 -23 43 -24 73 -8 47 25 46 11 47 611 l0 568 -25 24 -24 25 -568 0 c-431 -1 -572 -4 -584 -13z"
       id="path2"
       style="fill:#ffffff;fill-opacity:1;stroke:#ffffff;stroke-opacity:1;stroke-width:150;stroke-dasharray:none;stroke-linejoin:miter" />
    <path
       d="M3020 4927 c-25 -12 -94 -44 -155 -71 -60 -27 -137 -61 -170 -77 -123 -56 -474 -213 -590 -264 -66 -29 -154 -68 -195 -87 -41 -19 -149 -68 -240 -108 -91 -40 -173 -81 -183 -90 -16 -15 -17 -73 -17 -1025 0 -621 4 -1013 10 -1020 9 -11 57 -36 140 -73 165 -73 353 -158 400 -179 30 -14 75 -34 100 -45 25 -11 58 -26 75 -33 16 -8 172 -77 345 -155 173 -78 329 -147 345 -155 17 -7 65 -29 108 -49 43 -20 89 -36 102 -36 13 0 68 21 122 46 54 25 118 54 143 64 25 10 79 34 120 53 41 19 163 74 270 122 107 48 220 98 250 112 53 24 211 95 295 133 277 123 406 184 415 195 12 14 15 2018 4 2037 -10 15 -86 51 -924 425 -129 58 -257 115 -285 128 -27 12 -72 33 -100 45 -215 98 -293 130 -315 129 -14 0 -45 -10 -70 -22z m246 -213 c93 -42 221 -98 284 -126 63 -28 149 -66 190 -85 41 -19 116 -53 165 -75 50 -22 110 -49 135 -60 53 -24 125 -57 195 -88 28 -13 78 -36 113 -51 34 -16 66 -29 71 -29 5 0 14 -6 20 -14 9 -11 3 -18 -34 -35 -24 -11 -47 -21 -49 -21 -2 0 -46 -20 -97 -44 -52 -24 -114 -53 -139 -64 -62 -27 -626 -280 -675 -302 -22 -10 -80 -36 -130 -58 -49 -22 -114 -51 -144 -66 -68 -32 -84 -32 -152 0 -30 15 -94 44 -144 66 -90 40 -127 56 -243 109 -34 16 -64 29 -66 29 -2 0 -42 18 -88 39 -45 21 -216 98 -378 171 -162 73 -310 139 -328 148 -41 19 -34 27 58 67 36 15 93 41 128 56 34 16 64 29 67 29 2 0 37 16 77 34 62 30 701 318 853 385 28 12 68 31 90 41 22 10 43 19 46 19 4 1 82 -33 175 -75z m-1564 -693 c60 -27 96 -43 198 -89 300 -134 670 -301 728 -328 41 -19 75 -34 77 -34 2 0 43 -18 90 -40 47 -22 88 -40 90 -40 2 0 34 -14 70 -31 l65 -32 0 -878 c0 -483 -4 -880 -9 -883 -7 -5 -99 33 -271 112 -36 16 -318 143 -590 264 -25 11 -83 38 -128 59 -46 22 -85 39 -87 39 -3 0 -66 28 -190 85 -27 13 -67 30 -87 38 l-38 16 -2 878 c-2 483 -2 881 0 886 5 12 18 8 84 -22z m2866 -857 l-3 -887 -90 -39 c-49 -22 -123 -55 -163 -74 -41 -19 -75 -34 -77 -34 -2 0 -36 -15 -77 -34 -110 -51 -118 -54 -568 -256 -162 -73 -319 -143 -348 -156 -29 -14 -58 -22 -63 -19 -5 4 -9 352 -9 884 l0 879 33 15 c43 20 430 194 537 242 47 21 110 49 140 62 30 14 69 31 85 38 17 8 74 34 129 59 54 25 100 46 101 46 2 0 32 13 67 29 35 16 88 40 118 54 30 13 80 36 110 50 30 14 61 26 68 26 10 1 12 -179 10 -885z"
       id="path3"
       style="fill:#ffffff;fill-opacity:1;stroke:#ffffff;stroke-opacity:1;stroke-width:150;stroke-dasharray:none;stroke-linejoin:miter" />
    <path
       d="M465 1758 c-45 -26 -44 -15 -45 -611 l0 -568 25 -24 24 -25 568 0 c600 1 586 0 611 47 16 30 15 44 -8 73 l-19 25 -523 5 -523 5 -5 522 c-5 566 -3 545 -60 557 -14 3 -34 1 -45 -6z"
       id="path4"
       style="fill:#ffffff;fill-opacity:1;stroke:#ffffff;stroke-opacity:1;stroke-width:150;stroke-dasharray:none;stroke-linejoin:miter" />
    <path
       d="M5650 1750 l-25 -19 -5 -523 -5 -523 -523 -5 -523 -5 -19 -25 c-11 -14 -20 -31 -20 -38 0 -22 28 -69 45 -76 9 -3 271 -6 581 -6 l565 0 24 25 25 24 0 571 0 571 -26 24 c-32 30 -60 31 -94 5z"
       id="path5"
       style="fill:#ffffff;fill-opacity:1;stroke:#ffffff;stroke-opacity:1;stroke-width:150;stroke-dasharray:none;stroke-linejoin:miter" />
  </g>
</svg>
