<svg width="88" height="71" viewBox="0 0 88 71" fill="none" xmlns="http://www.w3.org/2000/svg">
<path d="M44.6783 0.668762H48.1647L50.189 0.893162L52.4383 1.45416L54.9125 2.35176L57.0494 3.47376L58.8488 4.70796L60.3108 5.94216L61.2105 6.72756L62.4476 8.07396L63.9097 10.0936L64.9219 11.8888L65.8216 13.7962L66.7213 16.7134L67.0587 18.6208L67.1712 19.7428L67.2836 39.49L69.1955 38.4802L71.4448 37.6948L73.4692 37.3582H76.3932L78.3051 37.6948L80.3295 38.368L82.1289 39.2656L83.7034 40.3876L85.053 41.6218L86.0652 42.7438L87.4148 44.7634L87.3023 45.1L81.6791 47.1196L68.5207 51.9442L72.457 53.4028L79.5422 55.9834L85.053 58.003L87.4148 58.9006L87.3023 59.3494L86.4026 60.6958L85.5029 61.8178L84.8281 62.6032L83.9284 63.3886L82.6912 64.2862L81.1167 65.1838L79.4298 65.857L77.293 66.418L76.5057 66.5302H73.1318L71.4448 66.1936L69.4204 65.5204L67.621 64.6228L67.2836 64.3984L67.1712 70.7938L67.0587 70.906H25.6718L25.5593 24.0064L25.6718 21.4258H1.49192L0.704664 21.3136L0.254807 20.6404L0.367271 19.6306L0.817129 19.1818L3.7412 19.0696H25.1094L25.6718 18.9574L26.3466 15.8158L27.0213 13.7962L27.8086 12.001L28.9332 10.0936L30.0579 8.52276L31.0701 7.28856H31.295L31.5199 6.83976L32.3072 6.05436L33.5443 5.04456L35.2313 3.81036L37.0307 2.80056L38.7176 2.01516L40.742 1.34196L42.7664 0.893162L44.6783 0.668762Z" fill="#FDF15A"/>
<path d="M44.6783 0.668762H48.1647L50.189 0.893162L52.4383 1.45416L54.9125 2.35176L57.0494 3.47376L58.8488 4.70796L60.3108 5.94216L61.2105 6.72756L62.4476 8.07396L63.9097 10.0936L64.9219 11.8888L65.8216 13.7962L66.7213 16.7134L67.0587 18.6208L67.1712 19.7428L67.2836 39.49L69.1955 38.4802L71.4448 37.6948L73.4692 37.3582H76.3932L78.3051 37.6948L80.3295 38.368L82.1289 39.2656L83.7034 40.3876L85.053 41.6218L86.0652 42.7438L87.4148 44.7634L87.3023 45.1L81.6791 47.1196L68.5207 51.9442L72.457 53.4028L79.5422 55.9834L85.053 58.003L87.4148 58.9006L87.3023 59.3494L86.4026 60.6958L85.5029 61.8178L84.8281 62.6032L83.9284 63.3886L82.6912 64.2862L81.1167 65.1838L79.4298 65.857L77.293 66.418L76.5057 66.5302H73.1318L71.4448 66.1936L69.4204 65.5204L67.621 64.6228L67.2836 64.3984L67.1712 70.7938L67.0587 70.906H25.6718L25.5593 24.0064L25.6718 21.4258H1.49192L0.704664 21.3136L0.254807 20.6404L0.367271 19.6306L0.817129 19.1818L3.7412 19.0696H25.1094L25.6718 18.9574L26.3466 15.8158L27.0213 13.7962L27.8086 12.001L28.9332 10.0936L30.0579 8.52276L31.0701 7.28856H31.295L31.5199 6.83976L32.3072 6.05436L33.5443 5.04456L35.2313 3.81036L37.0307 2.80056L38.7176 2.01516L40.742 1.34196L42.7664 0.893162L44.6783 0.668762ZM38.7176 21.3136L27.9211 21.4258V68.5498L28.0335 68.6619H55.2499L64.8094 68.5498L64.9219 68.4376V21.538L64.8094 21.4258L54.8001 21.3136H38.7176Z" fill="#020303"/>
<path d="M44.6782 2.91278H48.0522L50.4139 3.24938L53.0006 4.03478L55.5873 5.26898L56.8244 6.05438L58.2864 7.17638L59.4111 8.18618L60.3108 9.08378L61.7728 10.9912L62.785 12.6742L63.7972 14.9182L64.472 17.05L64.8094 19.0696L64.6969 19.1818H28.146L28.0335 18.733L28.5958 16.2646L29.3831 14.1328L30.2828 12.3376L31.4074 10.5424L32.9819 8.63498L33.8817 7.73738L35.1188 6.72758L36.9182 5.49338L38.8301 4.48358L40.8544 3.69818L43.1037 3.13718L44.6782 2.91278Z" fill="#5BC4A8"/>
<path d="M73.5816 39.6022H76.0558L77.8553 39.9388L79.2049 40.3876L81.0043 41.2852L82.5788 42.4072L83.366 43.1926L83.8159 43.5292V43.8658L80.8918 44.9878L67.2836 49.9246L67.1712 49.8124V42.5194L67.7335 41.9584L69.5329 40.8364L71.2199 40.1632L72.9068 39.7144L73.5816 39.6022Z" fill="#F49938"/>
<path d="M67.2836 53.9638L69.0831 54.637L71.8947 55.6468L78.0802 57.8908L83.9284 60.0226L83.2536 60.808L82.3539 61.7056L80.6669 62.8276L78.8675 63.613L77.4054 64.0618L76.1683 64.2862H73.5816L71.7822 63.9496L69.9828 63.2764L68.5207 62.491L67.2836 61.5934L67.1712 61.369V54.076L67.2836 53.9638Z" fill="#F59938"/>
<path d="M53.6755 28.7188H55.25L56.8245 29.1676L58.0616 29.953L58.9613 30.8506L59.7485 32.197L60.1984 33.7678V35.002L59.7485 36.685L58.9613 38.0314L57.9491 39.0412L57.0494 39.6022L55.6998 40.051L55.1375 40.1632H53.9004L52.7757 39.9388L51.7636 39.49L50.5265 38.7046L49.5143 37.4704L48.9519 36.124L48.727 35.2264V33.6556L49.0644 32.3092L49.7392 31.075L50.6389 30.0652L51.876 29.2798L53.0007 28.831L53.6755 28.7188Z" fill="#010101"/>
</svg>
