<svg width="126" height="40" viewBox="0 0 126 40" fill="none" xmlns="http://www.w3.org/2000/svg">
<path d="M1.02602 0.227173H7.88635L9.79825 0.451573L11.5977 1.01257L13.5096 2.02237L14.6342 2.91997H15.0841L16.2087 2.02237L18.1206 1.01257L19.92 0.451573L21.607 0.227173H28.8047L29.3671 0.451573L29.4795 1.46137V6.17377L29.2546 6.95917L28.9172 7.18357L22.8441 7.29577L21.3821 7.74457L20.2574 8.52997L19.4702 9.42757L18.9079 10.5496L18.7954 11.1106L18.6829 38.5996L18.458 38.9362L18.1206 39.0484H11.5977L11.1478 38.9362L11.0354 38.7118L10.9229 24.9112V10.8862L10.473 9.65197L9.46085 8.52997L8.22374 7.74457L7.21157 7.40797L6.64924 7.29577L0.801092 7.18357L0.463698 7.07137L0.23877 6.51037V0.788173L0.463698 0.339373L1.02602 0.227173Z" fill="#5BC4A8"/>
<path d="M42.8559 0.227173H60.8502L61.525 0.339373L61.6375 0.900373V6.73477L61.4126 7.07137L60.9627 7.18357L44.318 7.29577L42.9684 7.63237L41.7313 8.41777L40.944 9.31537L40.2692 10.6618L40.1568 11.2228V12.457L40.6066 13.6912L41.2814 14.4766V14.701L41.7313 14.9254L42.7435 15.5986L43.5307 15.9352L44.093 16.0474L61.1876 16.1596L61.525 16.384L61.6375 16.945V22.6672L61.525 23.0038L61.3001 23.116L60.063 23.2282L43.5307 23.3404L42.1811 24.0136L41.0565 25.0234L40.4942 25.921L40.2692 26.482L40.1568 27.1552V28.2772L40.4942 29.3992L41.2814 30.409L42.0687 31.0822L43.4182 31.7554L44.2055 31.9798L60.8502 32.092L61.525 32.3164L61.6375 32.7652V38.3752L61.3001 38.9362L61.0752 39.0484H42.8559L41.0565 38.824L39.1446 38.1508L37.5701 37.2532L36.1081 36.019L34.8709 34.7848L33.7463 33.1018L32.9591 31.3066L32.5092 29.7358L32.3967 28.8382V26.3698L32.7341 24.5746L33.4089 22.7794L34.3086 21.2086L35.2083 20.0866L35.4333 19.5256L34.1962 17.9548L33.184 16.0474L32.6217 14.2522L32.3967 12.9058V10.4374L32.8466 8.19337L33.6338 6.39817L34.7585 4.71517L35.9956 3.36877L37.1202 2.35897L38.5823 1.46137L40.3817 0.675973L41.7313 0.339373L42.8559 0.227173Z" fill="#5BC4A8"/>
<path d="M65.5669 0.227173H70.6278L72.0898 0.339373L72.2023 0.451573L72.3147 16.0474L82.549 15.9352L83.5612 15.4864L84.236 15.0376L85.1357 14.2522L85.5855 13.4668L85.9229 12.457L86.0354 1.01257L86.2603 0.339373L86.9351 0.227173H92.7833L93.5705 0.339373L93.7954 1.01257V11.896L93.5705 14.14L93.0082 15.9352L92.2209 17.506L91.2088 18.9646L90.7589 19.4134L90.8714 19.9744L91.5462 20.7598L92.4459 22.2184L93.2331 24.0136L93.5705 25.2478L93.683 25.921L93.7954 29.0626V35.1214L93.683 38.7118L93.1207 39.0484H86.8226L86.1479 38.824L86.0354 38.263L85.9229 26.7064L85.4731 25.5844L85.0232 24.9112L84.1235 24.1258L82.7739 23.4526L82.4365 23.3404L72.3147 23.2282L72.2023 38.7118L72.0898 38.9362L71.5275 39.0484H65.2295L64.6672 38.824L64.5547 38.5996V0.563773L64.6672 0.339373L65.5669 0.227173Z" fill="#5BC4A8"/>
<path d="M97.275 8.86658H103.798L104.248 9.09098L104.36 9.87638L104.473 12.1204L104.923 13.579L105.597 14.5888L106.61 15.3742L107.959 15.9352L109.084 16.1596H113.582L115.157 15.823L116.394 15.1498L117.294 14.2522L117.968 12.9058L118.081 12.457L118.193 9.53978L118.418 8.97878L118.756 8.86658H125.391L125.841 9.09098V13.3546L125.504 14.9254L124.941 16.4962L124.266 17.7304L123.254 19.0768L122.467 19.9744L121.23 20.9842L119.88 21.8818L118.193 22.555L116.619 23.0038L115.719 23.116H106.61L105.26 22.8916L103.461 22.2184L101.886 21.3208L100.424 20.1988L99.5243 19.3012L98.3996 17.7304L97.4999 16.0474L96.9376 14.3644L96.7126 12.7936V9.53978L96.9376 8.97878L97.275 8.86658Z" fill="#5BC4A8"/>
<path d="M107.847 24.1258H114.707L115.045 24.238L115.157 24.5746V38.7118L115.045 38.9362L114.482 39.0484H108.072L107.51 38.824V24.4624L107.847 24.1258Z" fill="#5BC4A8"/>
<path d="M121.455 0.227173H122.692L123.704 0.563773L124.716 1.23697L125.391 2.02237L125.841 3.03217L125.954 4.37857L125.729 5.38837L125.166 6.39817L124.604 6.95917L123.704 7.63237L123.029 7.85677H121.23L120.33 7.52017L119.318 6.84697L118.531 5.61277L118.193 4.49077V3.70537L118.531 2.47117L119.206 1.46137L119.993 0.788173L120.893 0.339373L121.455 0.227173Z" fill="#FDF360"/>
<path d="M99.8617 0.227173H101.099L102.223 0.563773L103.123 1.23697L103.798 2.02237L104.248 3.03217L104.36 3.48097V4.60297L104.023 5.72497L103.236 6.84697L102.336 7.52017L101.436 7.85677H99.6367L98.5121 7.40797L97.6124 6.62257L96.9376 5.61277L96.7126 4.93957V3.14437L97.1625 2.13457L97.8373 1.23697L98.8495 0.563773L99.8617 0.227173Z" fill="#FDF35F"/>
<path d="M121.455 0.227173H122.692L123.704 0.563773L124.716 1.23697L125.391 2.02237L125.841 3.03217L125.954 4.37857L125.729 5.38837L125.166 6.39817L124.604 6.95917L123.704 7.63237L123.029 7.85677H121.23L120.33 7.52017L119.318 6.84697L118.531 5.61277L118.193 4.49077V3.70537L118.531 2.47117L119.206 1.46137L119.993 0.788173L120.893 0.339373L121.455 0.227173ZM121.455 1.23697L120.555 1.68577L119.993 2.13457L119.318 3.25657L119.206 4.04197L119.431 5.16397L119.993 6.06157L121.005 6.73477L121.68 6.95917L122.805 6.84697L123.704 6.39817L124.604 5.38837L124.829 4.71517V3.36877L124.267 2.24677L123.479 1.57357L122.692 1.23697H121.455Z" fill="#5BC4A8"/>
<path d="M99.8617 0.227173H101.099L102.223 0.563773L103.123 1.23697L103.798 2.02237L104.248 3.03217L104.36 3.48097V4.60297L104.023 5.72497L103.236 6.84697L102.336 7.52017L101.436 7.85677H99.6367L98.5121 7.40797L97.6124 6.62257L96.9376 5.61277L96.7126 4.93957V3.14437L97.1625 2.13457L97.8373 1.23697L98.8495 0.563773L99.8617 0.227173ZM99.8617 1.23697L98.9619 1.68577L98.3996 2.13457L97.7248 3.25657V4.82737L98.2871 5.83717L99.1869 6.62257L99.6367 6.84697L100.536 6.95917L101.436 6.73477L102.223 6.28597L103.011 5.38837L103.348 4.49077V3.59317L102.898 2.58337L102.223 1.79797L101.099 1.23697H99.8617Z" fill="#5BC4A8"/>
</svg>
