<svg width="49" height="49" viewBox="0 0 49 49" fill="none" xmlns="http://www.w3.org/2000/svg">
<g clip-path="url(#clip0_947_51)">
<path d="M24.4 46.6426C36.8264 46.6426 46.9 36.569 46.9 24.1426C46.9 11.7162 36.8264 1.64258 24.4 1.64258C11.9736 1.64258 1.90002 11.7162 1.90002 24.1426C1.90002 36.569 11.9736 46.6426 24.4 46.6426Z" fill="white" stroke="#FF0000" stroke-width="2"/>
<path d="M37.3446 18.0797C37.1901 17.5099 36.8892 16.9904 36.4717 16.5728C36.0541 16.1554 35.5347 15.8545 34.9647 15.7C32.851 15.1426 24.4 15.1426 24.4 15.1426C24.4 15.1426 15.949 15.1426 13.8353 15.7C12.6782 16.0105 11.7679 16.9226 11.4555 18.0797C10.9 20.1916 10.9 24.5732 10.9 24.5732C10.9 24.5732 10.9 28.9762 11.4555 31.0667C11.7679 32.224 12.6801 33.1361 13.8353 33.4466C15.949 34.004 24.4 34.004 24.4 34.004C24.4 34.004 32.851 34.004 34.9647 33.4466C35.5347 33.2921 36.0541 32.9912 36.4717 32.5738C36.8892 32.1562 37.1901 31.6367 37.3446 31.0667C37.9 28.955 37.9 24.5732 37.9 24.5732C37.9 24.5732 37.9 20.1916 37.3446 18.0797Z" fill="#FF0000"/>
<path d="M21.6865 28.6428L28.7143 24.5967L21.6865 20.5273V28.6428Z" fill="white"/>
</g>
<defs>
<clipPath id="clip0_947_51">
<rect width="48" height="48" fill="white" transform="translate(0.400024 0.142578)"/>
</clipPath>
</defs>
</svg>
