<svg width="49" height="49" viewBox="0 0 49 49" fill="none" xmlns="http://www.w3.org/2000/svg">
<g clip-path="url(#clip0_947_48)">
<path d="M24.2 46.6426C36.6264 46.6426 46.7 36.569 46.7 24.1426C46.7 11.7162 36.6264 1.64258 24.2 1.64258C11.7736 1.64258 1.70001 11.7162 1.70001 24.1426C1.70001 36.569 11.7736 46.6426 24.2 46.6426Z" fill="white" stroke="#2366E8" stroke-width="2"/>
<path d="M24.7513 22.4348V21.9286H26.2667V29.0408H25.4005C25.2289 29.0411 25.0643 28.9735 24.9427 28.8526C24.821 28.7318 24.7522 28.5677 24.7513 28.3963C24.1187 28.8592 23.3549 29.1095 22.571 29.1083C21.5915 29.1083 20.6522 28.7194 19.9594 28.027C19.2667 27.3347 18.8771 26.3956 18.8765 25.4161C18.8771 24.4366 19.2667 23.4974 19.9594 22.8052C20.6522 22.1128 21.5915 21.7238 22.571 21.7238C23.3545 21.7229 24.119 21.9721 24.7513 22.4348ZM18.4838 19.6426V19.8731C18.4838 20.3029 18.4265 20.654 18.1465 21.0658L18.1127 21.1039C18.0193 21.2086 17.9285 21.3155 17.8405 21.4246L12.977 27.5288H18.4838V28.3928C18.4838 28.478 18.4672 28.5623 18.4345 28.6411C18.4018 28.7198 18.3539 28.7912 18.2938 28.8514C18.2335 28.9117 18.1618 28.9594 18.083 28.9918C18.0044 29.0243 17.92 29.041 17.8348 29.0408H10.7V28.6336C10.7 28.1351 10.8238 27.9125 10.9813 27.6808L16.1641 21.2626H10.916V19.6426H18.4838ZM28.1038 29.0408C27.9605 29.0408 27.8233 28.984 27.7219 28.8827C27.6206 28.7813 27.5638 28.6441 27.5638 28.5008V19.6426H29.1848V29.0408H28.1038ZM33.9797 21.6788C34.4681 21.6787 34.9517 21.7747 35.4031 21.9616C35.8543 22.1483 36.2644 22.4221 36.6098 22.7674C36.9554 23.1127 37.2295 23.5226 37.4165 23.9737C37.6036 24.4249 37.6999 24.9085 37.7 25.3969C37.7002 25.8854 37.6042 26.369 37.4173 26.8204C37.2305 27.2716 36.9568 27.6817 36.6115 28.0271C36.2662 28.3727 35.8562 28.6468 35.4052 28.8338C34.954 29.0209 34.4704 29.1172 33.9818 29.1173C32.9954 29.1176 32.0494 28.7261 31.3517 28.0288C30.6539 27.3314 30.2618 26.3857 30.2615 25.3991C30.2612 24.4127 30.6527 23.4667 31.3501 22.769C32.0474 22.0712 32.9932 21.6791 33.9797 21.6788ZM22.5722 27.5884C22.8617 27.595 23.1496 27.5437 23.419 27.4375C23.6884 27.3313 23.9338 27.1723 24.1409 26.9698C24.3479 26.7674 24.5125 26.5256 24.6248 26.2586C24.7372 25.9918 24.7951 25.7051 24.7951 25.4155C24.7951 25.126 24.7372 24.8393 24.6248 24.5723C24.5125 24.3055 24.3479 24.0637 24.1409 23.8612C23.9338 23.6588 23.6884 23.4998 23.419 23.3936C23.1496 23.2873 22.8617 23.236 22.5722 23.2426C22.0045 23.2555 21.4643 23.4901 21.0673 23.8961C20.6704 24.3023 20.4481 24.8476 20.4481 25.4155C20.4481 25.9834 20.6704 26.5288 21.0673 26.9348C21.4643 27.3409 22.0045 27.5755 22.5722 27.5884ZM33.9797 27.5851C34.5599 27.5851 35.1166 27.3545 35.5268 26.9441C35.9372 26.5339 36.1678 25.9772 36.1678 25.3969C36.1678 24.8167 35.9372 24.26 35.5268 23.8498C35.1166 23.4394 34.5599 23.2088 33.9797 23.2088C33.3994 23.2088 32.8427 23.4394 32.4325 23.8498C32.0221 24.26 31.7915 24.8167 31.7915 25.3969C31.7915 25.9772 32.0221 26.5339 32.4325 26.9441C32.8427 27.3545 33.3994 27.5851 33.9797 27.5851Z" fill="#2366E9"/>
</g>
<defs>
<clipPath id="clip0_947_48">
<rect width="48" height="48" fill="white" transform="translate(0.200012 0.142578)"/>
</clipPath>
</defs>
</svg>
