<svg width="49" height="49" viewBox="0 0 49 49" fill="none" xmlns="http://www.w3.org/2000/svg">
<g clip-path="url(#clip0_947_62)">
<path d="M24.8 46.6426C37.2265 46.6426 47.3 36.569 47.3 24.1426C47.3 11.7162 37.2265 1.64258 24.8 1.64258C12.3736 1.64258 2.30005 11.7162 2.30005 24.1426C2.30005 36.569 12.3736 46.6426 24.8 46.6426Z" fill="white" stroke="#3B5998" stroke-width="2"/>
<path fill-rule="evenodd" clip-rule="evenodd" d="M21.2755 37.6426V25.7164H17.3V20.747H21.2755V16.7717C21.2755 12.6641 23.8763 10.6426 27.5407 10.6426C29.2958 10.6426 30.8045 10.7738 31.2437 10.8314V15.1248L28.7024 15.1259C26.7098 15.1259 26.2447 16.073 26.2447 17.4623V20.747H31.214L30.2201 25.7164H26.2447L26.3242 37.6426" fill="#3B5998"/>
</g>
<defs>
<clipPath id="clip0_947_62">
<rect width="48" height="48" fill="white" transform="translate(0.800049 0.142578)"/>
</clipPath>
</defs>
</svg>
