<svg width="50" height="49" viewBox="0 0 50 49" fill="none" xmlns="http://www.w3.org/2000/svg">
<g clip-path="url(#clip0_947_55)">
<path d="M25.1 46.6426C37.7853 46.6426 48.0687 36.569 48.0687 24.1426C48.0687 11.7162 37.7853 1.64258 25.1 1.64258C12.4147 1.64258 2.13123 11.7162 2.13123 24.1426C2.13123 36.569 12.4147 46.6426 25.1 46.6426Z" fill="white" stroke="url(#paint0_linear_947_55)" stroke-width="2"/>
<path d="M17.5684 28.081C17.7341 26.7374 18.2966 25.9852 19.3566 25.214C20.8736 24.1696 22.7682 24.7603 22.7682 24.7603V21.2554C23.2289 21.2438 23.6897 21.2707 24.1452 21.3353V25.8458C24.1452 25.8458 22.2511 25.255 20.7344 26.3C19.6748 27.0706 19.1111 27.8234 18.946 29.1671C18.9408 29.8967 19.0806 30.8504 19.7242 31.6751C19.5651 31.5952 19.4028 31.504 19.2376 31.4018C17.8197 30.4691 17.5615 29.0699 17.5684 28.081ZM31.9687 14.7748C30.9253 13.6548 30.5306 12.5239 30.388 11.7295H31.7006C31.7006 11.7295 31.4389 13.8125 33.3462 15.8609L33.3727 15.8884C32.8587 15.5716 32.3872 15.1978 31.9687 14.7748ZM38.2919 17.9503V22.37C38.2919 22.37 36.617 22.3058 35.3774 21.9968C33.6465 21.5648 32.534 20.9021 32.534 20.9021C32.534 20.9021 31.7655 20.4296 31.7035 20.3968V29.5235C31.7035 30.0317 31.5614 31.3009 31.1282 32.3593C30.5629 33.7441 29.6902 34.6529 29.5297 34.8386C29.5297 34.8386 28.4686 36.0673 26.5962 36.8947C24.9086 37.6411 23.4268 37.6222 22.9839 37.6411C22.9839 37.6411 20.4225 37.7404 18.1176 36.2731C17.6192 35.9497 17.154 35.5834 16.728 35.1788L16.7395 35.1869C19.045 36.6542 21.6057 36.5549 21.6057 36.5549C22.0493 36.536 23.5309 36.5549 25.218 35.8085C27.0886 34.9813 28.1516 33.7526 28.1516 33.7526C28.3104 33.5669 29.1869 32.6579 29.7501 31.2728C30.182 30.2149 30.3252 28.9451 30.3252 28.4369V19.3112C30.3874 19.3447 31.1553 19.8172 31.1553 19.8172C31.1553 19.8172 32.2684 20.4805 33.9991 20.9119C35.2393 21.2209 36.9137 21.2851 36.9137 21.2851V17.8217C37.4866 17.9476 37.975 17.9816 38.2919 17.9503Z" fill="#EE1D52"/>
<path d="M36.9146 17.8217V21.284C36.9146 21.284 35.2401 21.2197 34.0001 20.9108C32.2693 20.4788 31.1562 19.8161 31.1562 19.8161C31.1562 19.8161 30.3883 19.3436 30.3261 19.3102V28.438C30.3261 28.9463 30.184 30.2159 29.751 31.2739C29.1855 32.6591 28.313 33.568 28.1525 33.7537C28.1525 33.7537 27.0908 34.9823 25.219 35.8097C23.5318 36.5561 22.0502 36.5372 21.6066 36.5561C21.6066 36.5561 19.0459 36.6554 16.7404 35.1881L16.7289 35.18C16.4855 34.949 16.2564 34.7053 16.0426 34.4498C15.3069 33.5711 14.856 32.5321 14.7427 32.2357V32.2319C14.5603 31.7167 14.1772 30.4795 14.2296 29.281C14.3222 27.1667 15.0815 25.8691 15.2822 25.5439C15.8139 24.6574 16.5054 23.8642 17.326 23.1997C18.0499 22.6261 18.8707 22.1698 19.7544 21.8494C20.7097 21.4733 21.7328 21.2716 22.7685 21.2554V24.7603C22.7685 24.7603 20.8737 24.1717 19.3575 25.214C18.2974 25.9852 17.735 26.7374 17.5693 28.081C17.5624 29.0699 17.8206 30.4691 19.2373 31.4024C19.4027 31.505 19.5648 31.5961 19.7241 31.6756C19.9714 31.9907 20.2727 32.2654 20.6156 32.4884C21.9995 33.3466 23.1591 33.4064 24.642 32.8492C25.6307 32.4766 26.375 31.6367 26.7202 30.7063C26.937 30.1252 26.9343 29.5402 26.9343 28.9355V11.7295H30.3854C30.5281 12.5239 30.9227 13.6548 31.9661 14.7748C32.3846 15.1978 32.8561 15.5716 33.3701 15.8884C33.522 16.0423 34.2985 16.8032 35.2953 17.2703C35.8108 17.5118 36.3542 17.6969 36.9146 17.8217Z" fill="black"/>
<path d="M13.3687 31.1592V31.1619L13.4543 31.3893C13.4444 31.3629 13.4126 31.2823 13.3687 31.1592Z" fill="#69C9D0"/>
<path d="M19.7541 21.8492C18.8704 22.1696 18.0496 22.6259 17.3255 23.1994C16.5048 23.8654 15.8134 24.6604 15.2824 25.5485C15.0817 25.8727 14.3224 27.1714 14.2298 29.2856C14.1774 30.4841 14.5605 31.7213 14.7429 32.2366V32.2403C14.8579 32.5342 15.3071 33.5731 16.0428 34.4545C16.2566 34.7101 16.4856 34.9538 16.7291 35.1847C15.9492 34.6783 15.2537 34.0661 14.6652 33.3679C13.9359 32.4968 13.486 31.4686 13.3687 31.1651V31.1587V31.1548C13.1858 30.6401 12.8015 29.4023 12.855 28.2023C12.9476 26.0881 13.7069 24.7904 13.9077 24.4652C14.4385 23.5769 15.1299 22.7819 15.9508 22.1161C16.6747 21.5423 17.4955 21.086 18.3793 20.7659C18.9306 20.5511 19.5049 20.3927 20.0923 20.2934C20.9776 20.1484 21.8816 20.1356 22.7711 20.2561V21.2552C21.7343 21.2711 20.7102 21.4727 19.7541 21.8492Z" fill="#69C9D0"/>
<path d="M30.3877 11.7291H26.9364V28.9357C26.9364 29.5405 26.9364 30.1238 26.7225 30.7064C26.374 31.6364 25.6324 32.4761 24.6443 32.8489C23.1608 33.4084 22.0012 33.3463 20.6179 32.4881C20.2744 32.2661 19.9723 31.9924 19.7239 31.678C20.9025 32.2682 21.9574 32.258 23.2643 31.7656C24.252 31.3928 24.9947 30.553 25.3419 29.6227C25.5594 29.0414 25.5565 28.4566 25.5565 27.8522V10.6426H30.3222C30.3222 10.6426 30.2687 11.0703 30.3877 11.7291ZM36.9141 16.864V17.8214C36.3545 17.6963 35.8123 17.5114 35.2977 17.27C34.3008 16.8029 33.5243 16.042 33.3724 15.8881C33.5487 15.9967 33.7315 16.0955 33.92 16.184C35.132 16.7521 36.3256 16.9217 36.9141 16.864Z" fill="#69C9D0"/>
</g>
<defs>
<linearGradient id="paint0_linear_947_55" x1="25.1" y1="0.142578" x2="25.1" y2="48.1426" gradientUnits="userSpaceOnUse">
<stop stop-color="#EE1D52"/>
<stop offset="1"/>
</linearGradient>
<clipPath id="clip0_947_55">
<rect width="49" height="48" fill="white" transform="translate(0.599976 0.142578)"/>
</clipPath>
</defs>
</svg>
